<?xml version="1.0" encoding="utf-8"?>
<!-- Generator: Adobe Illustrator 24.0.2, SVG Export Plug-In . SVG Version: 6.00 Build 0)  -->
<svg version="1.1" id="Adobe_Folder_2020" xmlns="http://www.w3.org/2000/svg" xmlns:xlink="http://www.w3.org/1999/xlink" x="0px"
	 y="0px" viewBox="0 0 240 210" style="enable-background:new 0 0 240 210;" xml:space="preserve">
<style type="text/css">
	.st0{fill:#31251C;}
	.st1{fill:#F34F29;}
	.st2{fill:#FFFFFF;}
</style>
<title></title>
<path class="st0" d="M232.5,52.5c0-8.3-6.7-15-15-15H7.5v150c0,8.3,6.7,15,15,15l0,0h195c8.3,0,15-6.7,15-15l0,0V52.5z"/>
<path id="Path_4_4_" class="st1" d="M217.5,30h-79.9c-1,0-2-0.4-2.6-1.1L111.8,5.6C108.3,2,103.6,0,98.6,0H22.5
	C10.1,0,0,10.1,0,22.5v165C0,199.9,10.1,210,22.5,210h195c12.4,0,22.5-10.1,22.5-22.5v-135C240,40.1,229.9,30,217.5,30z
	 M232.5,187.5c0,8.3-6.7,15-15,15l0,0h-195c-8.3,0-15-6.7-15-15l0,0v-150h210c8.3,0,15,6.7,15,15V187.5z"/>
<path class="st2" d="M85.6,106.1c-5,0-8.8,2.5-8.8,8.4c0,4.5,2.5,7.6,8.5,7.6c5.1,0,8.6-3,8.6-7.8C93.9,109,90.8,106.1,85.6,106.1z
	 M75.5,148.2c-1.2,1.5-2.4,3-2.4,4.9c0,3.7,4.7,4.8,11.1,4.8c5.3,0,12.6-0.4,12.6-5.3c0-2.9-3.5-3.1-7.9-3.4
	C88.9,149.1,75.5,148.2,75.5,148.2z M102.6,106.4c1.6,2.1,3.4,5,3.4,9.3c0,10.2-8,16.1-19.5,16.1c-2.9,0-5.6-0.4-7.2-0.8l-3,4.9
	l9,0.5c15.9,1,25.2,1.5,25.2,13.7c0,10.5-9.3,16.5-25.2,16.5c-16.6,0-22.9-4.2-22.9-11.5c0-4.1,1.8-6.3,5-9.4c-3-1.3-4-3.6-4-6
	c0-2,1-3.8,2.7-5.6c1.7-1.7,3.5-3.5,5.7-5.5c-4.5-2.2-7.9-7-7.9-13.7c0-10.5,7-17.8,21-17.8c3.9,0,6.3,0.4,8.4,0.9H111v7.8
	C111,105.8,102.6,106.4,102.6,106.4z M127.2,89.8c-5.2,0-8.3-3-8.3-8.3c0-5.2,3-8.1,8.3-8.1c5.3,0,8.3,2.8,8.3,8.1
	C135.5,86.7,132.5,89.8,127.2,89.8z M115.3,144.8v-7.2l4.7-0.6c1.3-0.2,1.5-0.5,1.5-1.8v-26.9c0-1-0.3-1.7-1.2-1.9l-4.9-1.7l1-7.4
	h19v38c0,1.5,0.1,1.7,1.5,1.8l4.7,0.6v7.2L115.3,144.8L115.3,144.8z M177.7,141.3c-3.9,1.9-9.7,3.7-14.9,3.7c-10.9,0-15-4.4-15-14.8
	v-24c0-0.5,0-0.9-0.7-0.9h-6.4v-8.2c8.1-0.9,11.3-5,12.3-14.9h8.7v13c0,0.6,0,0.9,0.7,0.9h12.9v9.2h-13.7v21.9
	c0,5.4,1.3,7.5,6.2,7.5c2.6,0,5.2-0.6,7.4-1.5L177.7,141.3z"/>
</svg>
