<?xml version="1.0" encoding="utf-8"?>
<!-- Generator: Adobe Illustrator 24.0.2, SVG Export Plug-In . SVG Version: 6.00 Build 0)  -->
<svg version="1.1" id="Adobe_Folder_2020" xmlns="http://www.w3.org/2000/svg" xmlns:xlink="http://www.w3.org/1999/xlink" x="0px"
	 y="0px" viewBox="0 0 240 210" style="enable-background:new 0 0 240 210;" xml:space="preserve">
<style type="text/css">
	.st0{fill:#0D2B35;}
	.st1{fill:#2F9DD9;}
	.st2{fill:#DFEEF2;}
</style>
<title></title>
<g>
	<path class="st0" d="M232.5,52.5c0-8.3-6.7-15-15-15H7.5v150c0,8.3,6.7,15,15,15l0,0h195c8.3,0,15-6.7,15-15l0,0V52.5z"/>
	<path id="Path_4_4_" class="st1" d="M217.5,30h-79.9c-1,0-2-0.4-2.6-1.1L111.8,5.6C108.3,2,103.6,0,98.6,0H22.5
		C10.1,0,0,10.1,0,22.5v165C0,199.9,10.1,210,22.5,210h195c12.4,0,22.5-10.1,22.5-22.5v-135C240,40.1,229.9,30,217.5,30z
		 M232.5,187.5c0,8.3-6.7,15-15,15l0,0h-195c-8.3,0-15-6.7-15-15l0,0v-150h210c8.3,0,15,6.7,15,15V187.5z"/>
	<g>
		<path class="st2" d="M88.1,150.6c-2.8,2.7-6,4.8-9.6,6.2s-7.4,2.1-11.5,2.1c-4.5,0-8.7-0.8-12.5-2.5s-7.1-4.1-10-7.3
			c-2.8-3.2-5.1-7.3-6.7-12.2c-1.6-4.9-2.4-10.5-2.4-16.9s0.8-12,2.4-16.8c1.6-4.8,3.9-8.9,6.7-12.1s6.2-5.7,10-7.4s8-2.5,12.5-2.5
			c4.1,0,8,0.7,11.5,2.1c3.6,1.4,6.8,3.4,9.6,6.2L79.5,97c-1.7-2-3.6-3.4-5.7-4.3s-4.3-1.3-6.5-1.3c-2.5,0-5,0.5-7.3,1.4
			c-2.3,1-4.4,2.6-6.2,4.9s-3.2,5.3-4.3,8.9c-1,3.6-1.6,8.1-1.7,13.4c0.1,5.2,0.6,9.6,1.6,13.2c1,3.6,2.4,6.6,4.1,8.9
			c1.8,2.3,3.7,4,6,5.1c2.2,1.1,4.6,1.6,7.1,1.6s4.8-0.5,7-1.3c2.2-0.9,4.1-2.3,5.9-4.3L88.1,150.6z"/>
		<path class="st2" d="M148.8,137.5c0,2.7-0.6,5.4-1.7,8c-1.1,2.6-2.7,4.8-4.8,6.8s-4.6,3.5-7.6,4.7s-6.5,1.7-10.3,1.7
			c-1.7,0-3.3-0.1-5.1-0.3c-1.8-0.2-3.5-0.5-5.3-0.9s-3.5-1-5.1-1.7s-3-1.6-4.2-2.6l2.2-8.9c1,0.6,2.2,1.1,3.7,1.6s3,1,4.6,1.4
			s3.2,0.8,4.7,1.1c1.6,0.3,3.1,0.4,4.4,0.4c4.2,0,7.4-1,9.6-2.9c2.2-2,3.3-4.9,3.3-8.7c0-2.3-0.8-4.3-2.4-6
			c-1.6-1.7-3.6-3.1-5.9-4.5c-2.4-1.3-4.9-2.7-7.7-4c-2.8-1.3-5.3-2.9-7.7-4.7s-4.4-4-6-6.4c-1.6-2.5-2.4-5.6-2.4-9.3
			c0-3.4,0.6-6.4,1.9-9s2.9-4.8,5-6.6c2.1-1.8,4.5-3.2,7.3-4.2s5.7-1.4,8.8-1.4c3.2,0,6.4,0.3,9.6,0.9c3.2,0.6,5.8,1.5,7.8,2.8
			c-0.4,0.9-0.9,1.9-1.4,2.9c-0.6,1.1-1.1,2.1-1.5,3c-0.5,0.9-0.9,1.7-1.2,2.3c-0.3,0.6-0.6,1-0.6,1c-0.4-0.2-0.9-0.5-1.4-0.8
			s-1.3-0.7-2.2-1s-2.2-0.6-3.8-0.7s-3.6-0.1-6.1,0.1c-1.4,0.1-2.7,0.5-3.9,1.2c-1.2,0.7-2.3,1.5-3.3,2.4c-1,1-1.7,2-2.3,3.2
			c-0.6,1.2-0.8,2.4-0.8,3.5c0,2.7,0.8,5,2.4,6.6s3.5,3.2,5.9,4.4s4.9,2.5,7.6,3.7c2.8,1.2,5.3,2.7,7.7,4.4s4.3,3.9,5.9,6.4
			C148,130.1,148.8,133.5,148.8,137.5z"/>
		<path class="st2" d="M204.7,137.5c0,2.7-0.6,5.4-1.7,8c-1.1,2.6-2.7,4.8-4.8,6.8s-4.6,3.5-7.6,4.7s-6.5,1.7-10.3,1.7
			c-1.7,0-3.3-0.1-5.1-0.3s-3.5-0.5-5.3-0.9s-3.5-1-5.1-1.7s-3-1.6-4.2-2.6l2.2-8.9c1,0.6,2.2,1.1,3.7,1.6s3,1,4.6,1.4
			s3.2,0.8,4.7,1.1c1.6,0.3,3.1,0.4,4.4,0.4c4.2,0,7.4-1,9.6-2.9c2.2-2,3.3-4.9,3.3-8.7c0-2.3-0.8-4.3-2.4-6
			c-1.6-1.7-3.6-3.1-5.9-4.5c-2.3-1.4-4.9-2.7-7.7-4s-5.3-2.9-7.7-4.7c-2.4-1.8-4.4-4-6-6.4c-1.6-2.5-2.4-5.6-2.4-9.3
			c0-3.4,0.6-6.4,1.9-9c1.2-2.6,2.9-4.8,5-6.6c2.1-1.8,4.5-3.2,7.3-4.2s5.7-1.4,8.8-1.4c3.2,0,6.4,0.3,9.6,0.9
			c3.2,0.6,5.8,1.5,7.8,2.8c-0.4,0.9-0.9,1.9-1.4,2.9s-1.1,2.1-1.5,3c-0.5,0.9-0.9,1.7-1.2,2.3c-0.3,0.6-0.6,1-0.6,1
			c-0.4-0.2-0.9-0.5-1.4-0.8s-1.3-0.7-2.2-1s-2.2-0.6-3.8-0.7s-3.6-0.1-6.1,0.1c-1.4,0.1-2.7,0.5-3.9,1.2s-2.3,1.5-3.3,2.4
			c-1,1-1.7,2-2.3,3.2s-0.8,2.4-0.8,3.5c0,2.7,0.8,5,2.4,6.6s3.5,3.2,5.9,4.4c2.3,1.3,4.9,2.5,7.6,3.7c2.8,1.2,5.3,2.7,7.7,4.4
			c2.4,1.7,4.3,3.9,5.9,6.4C203.8,130.1,204.7,133.5,204.7,137.5z"/>
	</g>
</g>
</svg>
