<?xml version="1.0" encoding="utf-8"?>
<!-- Generator: Adobe Illustrator 24.0.2, SVG Export Plug-In . SVG Version: 6.00 Build 0)  -->
<svg version="1.1" id="Adobe_Folder_2020" xmlns="http://www.w3.org/2000/svg" xmlns:xlink="http://www.w3.org/1999/xlink" x="0px"
	 y="0px" viewBox="0 0 240 210" style="enable-background:new 0 0 240 210;" xml:space="preserve">
<style type="text/css">
	.st0{fill:#300E09;}
	.st1{fill:#E44D26;}
	.st2{fill:#F4E4E1;}
</style>
<title></title>
<g>
	<path class="st0" d="M232.5,52.5c0-8.3-6.7-15-15-15H7.5v150c0,8.3,6.7,15,15,15l0,0h195c8.3,0,15-6.7,15-15l0,0V52.5z"/>
	<path id="Path_4_2_" class="st1" d="M217.5,30h-79.9c-1,0-2-0.4-2.6-1.1L111.8,5.6C108.3,2,103.6,0,98.6,0H22.5
		C10.1,0,0,10.1,0,22.5v165C0,199.9,10.1,210,22.5,210h195c12.4,0,22.5-10.1,22.5-22.5v-135C240,40.1,229.9,30,217.5,30z
		 M232.5,187.5c0,8.3-6.7,15-15,15l0,0h-195c-8.3,0-15-6.7-15-15l0,0v-150h210c8.3,0,15,6.7,15,15V187.5z"/>
	<g>
		<path class="st2" d="M61.3,93.2v53.5h-8.7v-24.1H29.4v24.1h-8.9V93.2h8.9v23.5h23.2V93.2H61.3z"/>
		<path class="st2" d="M112.6,93.2v6h-16v47.6h-8.8V99.2h-16v-6H112.6z"/>
		<path class="st2" d="M163.6,93.2h8.9v53.5h-8.9v-36.8l-12,29.8h-7.7l-12.1-29.8v36.8H123V93.2h8.9l15.9,36.6L163.6,93.2z"/>
		<path class="st2" d="M194.8,93.2v46.9h24.6v6.6h-33.5V93.2H194.8z"/>
	</g>
</g>
</svg>
