<?xml version="1.0" encoding="utf-8"?>
<!-- Generator: Adobe Illustrator 24.0.2, SVG Export Plug-In . SVG Version: 6.00 Build 0)  -->
<svg version="1.1" id="Adobe_Folder_2020" xmlns="http://www.w3.org/2000/svg" xmlns:xlink="http://www.w3.org/1999/xlink" x="0px"
	 y="0px" viewBox="0 0 240 210" style="enable-background:new 0 0 240 210;" xml:space="preserve">
<style type="text/css">
	.st0{fill:#302808;}
	.st1{fill:#F7DF1E;}
	.st2{fill:#FCF9E6;}
</style>
<g>
	<path class="st0" d="M232.5,52.5c0-8.3-6.7-15-15-15H7.5v150c0,8.3,6.7,15,15,15l0,0h195c8.3,0,15-6.7,15-15l0,0V52.5z"/>
	<path id="Path_4" class="st1" d="M217.5,30h-79.9c-1,0-2-0.4-2.6-1.1L111.8,5.6C108.3,2,103.6,0,98.6,0H22.5C10.1,0,0,10.1,0,22.5
		v165C0,199.9,10.1,210,22.5,210h195c12.4,0,22.5-10.1,22.5-22.5v-135C240,40.1,229.9,30,217.5,30z M232.5,187.5c0,8.3-6.7,15-15,15
		l0,0h-195c-8.3,0-15-6.7-15-15l0,0v-150h210c8.3,0,15,6.7,15,15V187.5z"/>
	<path class="st2" d="M61.8,146.1l13.5-8.2c2.6,4.6,5,8.5,10.7,8.5c5.5,0,8.9-2.1,8.9-10.4V79.6h16.6v56.7c0,17.2-10.1,25-24.8,25
		C73.4,161.3,65.7,154.4,61.8,146.1L61.8,146.1z M120.5,144.4l13.5-7.8c3.6,5.8,8.2,10.1,16.4,10.1c6.9,0,11.3-3.4,11.3-8.2
		c0-5.7-4.5-7.7-12.1-11l-4.1-1.8c-12-5.1-19.9-11.5-19.9-25c0-12.5,9.5-21.9,24.3-21.9c10.6,0,18.1,3.7,23.6,13.3l-12.9,8.3
		c-2.8-5.1-5.9-7.1-10.7-7.1c-4.9,0-7.9,3.1-7.9,7.1c0,5,3.1,7,10.2,10.1l4.1,1.8c14.1,6,22.1,12.2,22.1,26.1
		c0,14.9-11.7,23.1-27.5,23.1C135.3,161.3,125.3,154,120.5,144.4"/>
</g>
</svg>
