<?xml version="1.0" encoding="utf-8"?>
<!-- Generator: Adobe Illustrator 24.0.2, SVG Export Plug-In . SVG Version: 6.00 Build 0)  -->
<svg version="1.1" id="Adobe_Folder_2020" xmlns="http://www.w3.org/2000/svg" xmlns:xlink="http://www.w3.org/1999/xlink" x="0px"
	 y="0px" viewBox="0 0 240 210" style="enable-background:new 0 0 240 210;" xml:space="preserve">
<style type="text/css">
	.st0{fill:#300E09;}
	.st1{fill:#E44D26;}
	.st2{fill:#FFFFFF;}
</style>
<title></title>
<g>
	<path class="st0" d="M232.5,52.5c0-8.3-6.7-15-15-15H7.5v150c0,8.3,6.7,15,15,15l0,0h195c8.3,0,15-6.7,15-15l0,0V52.5z"/>
	<path id="Path_4_5_" class="st1" d="M217.5,30h-79.9c-1,0-2-0.4-2.6-1.1L111.8,5.6C108.3,2,103.6,0,98.6,0H22.5
		C10.1,0,0,10.1,0,22.5v165C0,199.9,10.1,210,22.5,210h195c12.4,0,22.5-10.1,22.5-22.5v-135C240,40.1,229.9,30,217.5,30z
		 M232.5,187.5c0,8.3-6.7,15-15,15l0,0h-195c-8.3,0-15-6.7-15-15l0,0v-150h210c8.3,0,15,6.7,15,15V187.5z"/>
	<polygon class="st2" points="127,63 127,63 76.6,63 77,68.4 82,123.9 127,123.9 127,123.9 151.7,123.9 149.4,150 127,156 127,156 
		126.9,156.1 104.5,150 103.1,133.9 82.9,133.9 85.7,165.5 126.9,177 127,177 127,177 168.2,165.5 168.5,162.1 173.3,109.2 
		173.7,103.8 168.3,103.8 127,103.8 127,103.8 100.4,103.8 98.6,83.1 127,83.1 127,83.1 175.6,83.1 176,78.6 176.9,68.4 177.4,63 	
		"/>
</g>
</svg>
