<?xml version="1.0" encoding="utf-8"?>
<!-- Generator: Adobe Illustrator 24.0.2, SVG Export Plug-In . SVG Version: 6.00 Build 0)  -->
<svg version="1.1" id="Adobe_Folder_2020" xmlns="http://www.w3.org/2000/svg" xmlns:xlink="http://www.w3.org/1999/xlink" x="0px"
	 y="0px" viewBox="0 0 240 210" style="enable-background:new 0 0 240 210;" xml:space="preserve">
<style type="text/css">
	.st0{fill:#0D2B35;}
	.st1{fill:#2F9DD9;}
	.st2{fill:#FFFFFF;}
</style>
<title></title>
<g>
	<path class="st0" d="M232.5,52.5c0-8.3-6.7-15-15-15H7.5v150c0,8.3,6.7,15,15,15l0,0h195c8.3,0,15-6.7,15-15l0,0V52.5z"/>
	<path id="Path_4_1_" class="st1" d="M217.5,30h-79.9c-1,0-2-0.4-2.6-1.1L111.8,5.6C108.3,2,103.6,0,98.6,0H22.5
		C10.1,0,0,10.1,0,22.5v165C0,199.9,10.1,210,22.5,210h195c12.4,0,22.5-10.1,22.5-22.5v-135C240,40.1,229.9,30,217.5,30z
		 M232.5,187.5c0,8.3-6.7,15-15,15l0,0h-195c-8.3,0-15-6.7-15-15l0,0v-150h210c8.3,0,15,6.7,15,15V187.5z"/>
	<polygon class="st2" points="110.7,63 110.6,63 60.3,63 60.8,68.4 61.7,78.6 62.1,83.1 110.7,83.1 110.7,83.1 139.1,83.1 
		137.3,103.7 110.6,103.7 110.6,103.7 86.7,103.7 87.2,109.1 88.1,119.3 88.5,123.9 110.6,123.9 110.6,123.9 135.5,123.9 
		133.1,149.9 110.7,156 110.7,156 110.7,156 88.3,150 86.8,133.9 66.6,133.9 69.5,165.5 110.7,177 110.8,177 110.8,176.9 152,165.5 
		152.3,162.1 155.7,123.9 155.7,123.9 160.6,68.4 161.1,63 	"/>
</g>
</svg>
